<svg width="160" height="40" viewBox="0 0 160 40" xmlns="http://www.w3.org/2000/svg">
  <defs>
    <linearGradient id="logoGradient" x1="0%" y1="0%" x2="100%" y2="0%">
      <stop offset="0%" style="stop-color:#0066cc;stop-opacity:1" />
      <stop offset="100%" style="stop-color:#28a745;stop-opacity:1" />
    </linearGradient>
  </defs>
  
  <!-- Cloud icon -->
  <path d="M8 25c-2.76 0-5-2.24-5-5 0-2.42 1.72-4.44 4-4.9 0-.03 0-.07 0-.1 0-3.31 2.69-6 6-6 2.21 0 4.15 1.2 5.18 2.99C19.39 11.34 20.64 11 22 11c3.31 0 6 2.69 6 6 0 .34-.03.67-.08 1H28c2.21 0 4 1.79 4 4s-1.79 4-4 4H8z" 
        fill="url(#logoGradient)" opacity="0.8"/>
  
  <!-- Text -->
  <text x="40" y="16" font-family="system-ui, -apple-system, sans-serif" font-size="14" font-weight="700" fill="#24292f">
    SkyService
  </text>
  <text x="40" y="30" font-family="system-ui, -apple-system, sans-serif" font-size="10" font-weight="400" fill="#656d76">
    .pro
  </text>
</svg>